<svg width="64" height="64" viewBox="0 0 64 64" fill="none" xmlns="http://www.w3.org/2000/svg">
<path d="M57.6 2.66675H6.4C4.70261 2.66675 3.07475 3.35352 1.87452 4.57598C0.674284 5.79844 0 7.45645 0 9.18527V54.8149C0 56.5437 0.674284 58.2017 1.87452 59.4242C3.07475 60.6466 4.70261 61.3334 6.4 61.3334H57.6C59.2974 61.3334 60.9253 60.6466 62.1255 59.4242C63.3257 58.2017 64 56.5437 64 54.8149V9.18527C64 7.45645 63.3257 5.79844 62.1255 4.57598C60.9253 3.35352 59.2974 2.66675 57.6 2.66675ZM6.4 54.8149V9.18527H57.6V54.8149H6.4Z" fill="#1A56DB"/>
<path d="M45.76 33.5124C45.4893 33.0765 45.1209 32.7122 44.6851 32.4496C44.2492 32.187 43.7584 32.0334 43.253 32.0016C42.7476 31.9698 42.2419 32.0606 41.7777 32.2666C41.3134 32.4726 40.9037 32.7878 40.5824 33.1865L35.6352 39.3367L26.7648 23.8519C26.4848 23.3311 26.0657 22.9016 25.556 22.6132C25.0463 22.3249 24.4669 22.1893 23.8848 22.2223C23.308 22.2407 22.7468 22.4176 22.2606 22.7343C21.7745 23.051 21.3815 23.4958 21.1232 24.0214L9.9232 46.8362C9.67811 47.3344 9.5625 47.8882 9.58741 48.4448C9.61231 49.0014 9.77689 49.5422 10.0654 50.0156C10.354 50.4889 10.7569 50.879 11.2356 51.1487C11.7143 51.4183 12.253 51.5584 12.8 51.5556H51.2C51.7731 51.5555 52.3356 51.3986 52.8288 51.1014C53.322 50.8042 53.7278 50.3775 54.0038 49.8659C54.2798 49.3544 54.4158 48.7767 54.3977 48.1933C54.3796 47.6099 54.208 47.0422 53.9008 46.5494L45.76 33.5124Z" fill="#1A56DB"/>
<path d="M40 25.4816C42.651 25.4816 44.8 23.2927 44.8 20.5927C44.8 17.8926 42.651 15.7038 40 15.7038C37.349 15.7038 35.2 17.8926 35.2 20.5927C35.2 23.2927 37.349 25.4816 40 25.4816Z" fill="#1A56DB"/>
</svg>
